<?xml version="1.0" encoding="UTF-8"?>
<svg width="45px" height="45px" viewBox="0 0 45 45" version="1.1" xmlns="http://www.w3.org/2000/svg" xmlns:xlink="http://www.w3.org/1999/xlink">
    <title>rocket-launch</title>
    <g id="Bootcamp" stroke="none" stroke-width="1" fill="none" fill-rule="evenodd">
        <g id="Bootcamp-final" transform="translate(-938, -1085)" fill="#087677" fill-rule="nonzero">
            <g id="Mission" transform="translate(222, 1085.5001)">
                <g id="Group-2" transform="translate(299, 0)">
                    <g id="rocket-launch" transform="translate(417.5, 0)">
                        <path d="M3.0666962,30.2556347 C0.844579305,32.4774159 -0.253471056,38.0353097 0.0494914786,43.9492055 C5.98906777,44.2550214 11.5316876,43.1455575 13.7448247,40.9323365 C17.2071578,37.4708427 17.4295541,32.8554057 14.2871361,29.7133233 C11.1449698,26.5715767 6.52869356,26.793973 3.0666962,30.2556347 Z M10.0819993,37.477053 C9.34414705,38.2147374 7.49666305,38.5845027 5.51708403,38.4824522 C5.41620842,36.5114333 5.78211331,34.6589139 6.52281894,33.9183762 C7.67676211,32.7646008 9.21524111,32.6904128 10.2626019,33.7376057 C11.3099627,34.7849665 11.2359425,36.3232777 10.0819993,37.477053 Z M43.412326,1.65832124 C43.3112826,1.1888552 42.811772,0.690183901 42.342306,0.589811826 C39.5840881,0 37.4225637,0 35.2702708,0 C26.3999307,0 21.0803785,4.74400724 17.1093034,10.9999738 L8.15445262,10.9999738 C6.75394327,10.9999738 5.09511849,12.0246753 4.46871617,13.2771442 L0.221533915,21.7676483 C0.0940546658,22.0487908 0.0170971466,22.3617402 0.00534790707,22.6874459 C0.00534790707,23.8256955 0.929845215,24.7497731 2.06817868,24.749941 L11.0016291,24.749941 C15.5549629,24.749941 19.2524486,28.4465875 19.2527004,32.9999213 L19.2527004,41.9374 C19.25312,43.0756496 20.1772816,43.9998951 21.3155312,43.9998951 C21.641153,43.9878102 21.9541023,43.9109366 22.2353288,43.7837091 L30.7214688,39.5378696 C31.9727628,38.911803 32.9966251,37.2549924 32.9966251,35.8559936 L32.9966251,26.8809174 C39.2346321,22.9009464 43.9982774,17.5647775 43.9982774,8.74009147 C44.006334,6.57873493 44.006334,4.41737838 43.412326,1.65832124 Z M30.7773616,23.4034781 C28.6003954,24.7924061 30.1323284,23.9827156 22.2423783,27.890177 C21.0003159,25.1731654 18.8235175,22.9976258 16.1055827,21.757074 C20.0048196,13.8780339 19.1904294,15.4191985 20.5926172,13.2103414 C24.635027,6.84208574 29.0245429,4.12499017 35.2702708,4.12499017 C36.7869298,4.12499017 38.152695,4.12499017 39.6851315,4.31818123 C39.8831901,5.88771179 39.8779869,7.28033237 39.8726158,8.74009147 C39.8726158,14.9507395 37.152499,19.3360592 30.7773616,23.4034781 Z M31.629685,8.93747869 C29.7327703,8.93773046 28.1926968,10.4779718 28.1926968,12.3749705 C28.1926968,14.272137 29.7330221,15.8124623 31.6301886,15.8124623 C33.527439,15.8124623 35.0676804,14.272137 35.0676804,12.3749705 C35.0667572,10.4780558 33.5266837,8.93815008 31.629685,8.93747869 Z" id="Shape"></path>
                    </g>
                </g>
            </g>
        </g>
    </g>
</svg>