<?xml version="1.0" encoding="UTF-8"?>
<svg width="44px" height="40px" viewBox="0 0 44 40" version="1.1" xmlns="http://www.w3.org/2000/svg" xmlns:xlink="http://www.w3.org/1999/xlink">
    <title>sketch</title>
    <g id="Symbols" stroke="none" stroke-width="1" fill="none" fill-rule="evenodd">
        <g id="Icon/info/sketch-Copy" transform="translate(0, -3)" fill="#FFFFFF" fill-rule="nonzero">
            <g id="sketch" transform="translate(0.7734, 3.7501)">
                <path d="M1.58983996,11.1890526 L0,13.3288409 L7.77732521,13.3288409 L8.37032611,2.09690357 L1.58983996,11.1890526 Z M33.2834976,1.17735773 L22.231995,0 L33.8937028,12.6499866 L33.2834976,1.17735773 Z M8.86874564,16.0101013 L7.90623115,14.1194808 L0.0773771349,14.1194808 L19.4046245,36.6092877 L8.86874564,16.0101013 Z M9.04062023,13.3288409 L33.446812,13.3288409 L26.4429225,5.72339029 L21.2522763,0.0859372951 L9.04062023,13.3288409 Z M34.5897613,14.1109206 L23.0827239,36.6092877 L42.401495,14.1194808 L34.5897613,14.1194808 L34.5897613,14.1109206 Z M34.9249503,3.17967992 L34.1171062,2.09690357 L34.1944833,3.58360199 L34.7186672,13.3288409 L42.4787882,13.3288409 L34.9249503,3.17967992 Z M8.98044734,5.28514365 L8.58516935,12.6413425 L20.2554372,0 L9.20385074,1.17735773 L8.98044734,5.28514365 Z M33.7046239,14.1109206 L8.78280834,14.1109206 L12.4264993,21.2350721 L21.2522763,38.4999082 L33.7046239,14.1109206 Z" id="Shape"></path>
            </g>
        </g>
    </g>
</svg>