<?xml version="1.0" encoding="UTF-8"?>
<svg width="300px" height="300px" viewBox="0 0 300 300" version="1.1" xmlns="http://www.w3.org/2000/svg" xmlns:xlink="http://www.w3.org/1999/xlink">
    <title>Bashing Bear</title>
    <defs>
        <path d="M123.773075,20.9079004 C123.773075,20.9079004 126.722356,16.4639549 127.272178,13.6513579 C127.821141,10.8394653 128.782471,8.47696834 129.742082,7.23866493 C130.701694,6.00177029 131.250657,6.22717251 131.594296,4.70711633 C131.937935,3.18846893 133.72228,2.00792484 135.09254,1.83957756 C136.465377,1.66982152 137.495434,2.17556773 137.564162,1.66982152 C137.632031,1.1640753 139.142324,-1.4801744 139.209333,1.50147424 C139.759155,2.73836888 140.788354,2.79542382 141.473913,1.66982152 C142.160332,0.544923601 142.778023,-0.467977592 143.120802,1.1640753 C143.462723,2.79542382 146.344135,2.57002161 146.413722,1.50147424 C146.483309,0.432926877 148.266794,-1.08642491 148.472119,1.1640753 C148.677443,3.41387114 150.667112,4.25701629 151.353531,2.51437543 C152.03909,0.769621432 153.00042,-0.130578655 153.206603,2.85177437 C154.097487,3.3568162 154.647309,3.3568162 154.647309,3.3568162 C154.647309,3.3568162 155.60778,1.27607203 156.086297,3.3568162 C157.459993,4.93251855 158.489191,7.74441115 157.733186,10.2766641 C156.978899,12.8082127 153.137875,20.5141509 151.765897,24.1142468 C150.39306,27.7150472 148.403391,34.4644347 147.237596,38.1208812 C146.070942,41.7773277 144.560649,44.8716775 144.150001,46.5593765 C143.737634,48.2463712 143.874231,50.3278198 144.355325,53.1404168 C144.836419,55.9537181 145.727303,54.7710609 144.150001,58.2028096 C142.571839,61.6338539 142.160332,61.4098605 142.297787,63.7723574 C142.434384,66.13415 142.571839,67.2034017 140.443856,69.6778954 C138.318449,72.1530934 136.054728,79.4659864 134.888074,81.997535 C133.72228,84.5283793 132.692222,86.0477311 130.565098,87.9037774 C128.438832,89.7605281 123.773075,93.89525 122.537694,96.003465 C121.303171,98.1130889 118.834126,100.138187 121.714679,101.573013 C124.596091,103.007839 127.581453,103.767163 125.213781,108.323809 C122.846969,112.879047 122.33237,115.242248 123.362427,116.929243 C124.390766,118.617646 126.346071,120.22082 124.390766,124.354133 C122.434602,128.488855 121.303171,128.404329 123.155385,130.76753 C125.008457,133.130027 123.155385,134.395801 121.920862,138.19242 C120.68548,141.989038 118.627083,145.786361 120.891664,147.980511 C123.155385,150.174661 140.341623,165.108966 143.737634,168.737942 C147.133645,172.364804 165.452174,191.434536 169.877383,196.750506 C174.301734,202.065772 174.406544,201.981246 174.406544,201.981246 C174.406544,201.981246 189.328202,216.83173 193.341045,222.232226 C197.353888,227.631313 198.589269,236.576259 194.369384,246.026247 C190.151217,255.477644 186.549023,264.674054 181.609214,269.820973 C176.668546,274.968596 173.375627,275.558163 170.495074,276.571064 C167.613662,277.583261 166.996831,277.583261 165.76059,278.259468 C164.526067,278.933561 162.056163,279.27096 161.438472,278.259468 C158.247785,279.27096 155.777881,280.240894 154.029618,279.946463 C155.16019,279.061055 156.756393,278.385552 156.91103,277.414914 C153.874122,278.343289 151.456622,278.723656 152.177405,277.583261 C150.272786,277.28883 149.655095,277.330388 150.942023,276.739412 C152.228091,276.149844 153.823435,274.925628 154.235801,274.376915 L154.235801,273.702821 C154.235801,273.702821 151.712633,273.787347 151.353531,273.534474 C153.720343,272.563131 153.823435,272.184174 153.823435,272.184174 C153.823435,272.184174 153.618111,270.368982 153.206603,269.990024 C152.793377,269.611067 153.206603,267.247161 153.618111,266.108175 C154.029618,264.969894 155.829427,263.577331 157.116354,261.215539 C158.403282,258.851633 157.254669,256.48984 157.321678,253.789945 C157.391265,251.089344 157.321678,249.964446 158.556201,246.365055 C159.791583,242.764254 159.929897,242.369801 159.997766,239.951657 C160.066494,237.53281 161.369744,235.169609 158.145553,234.38211 C154.920502,233.595315 142.914619,232.357012 139.209333,229.320421 C135.505765,226.282422 131.457699,225.494219 130.359773,224.594723 C129.261847,223.694523 125.350378,223.975571 125.213781,226.620525 C125.077185,229.264071 125.077185,230.10792 126.037656,231.682918 C126.997267,233.257916 127.684545,235.957812 126.24298,238.770409 C124.802274,241.583006 123.9784,242.483206 123.9784,242.483206 C125.213781,242.820605 129.330575,243.720101 130.359773,250.076443 C131.250657,255.815043 130.565098,256.48984 129.330575,257.33369 C128.095193,258.17754 125.831472,258.008488 125.008457,257.502742 C124.184583,256.996291 121.98959,256.827239 121.096988,256.152442 C120.206104,255.477644 116.226766,253.451841 115.746531,253.958292 C114.236238,255.027544 103.054229,258.17754 95.7819719,256.827239 C94.7536326,258.851633 92.6943767,264.30848 88.1660756,264.420476 C83.6377745,264.533882 81.6489646,262.115034 80.5510385,260.876731 C79.4531123,259.639836 77.532171,256.096091 77.6696266,254.63309 C77.806223,253.171497 79.7967512,249.177652 80.14039,248.726847 C78.4239139,246.646103 74.2401107,242.988248 73.3475088,239.951657 C72.4549069,236.914363 72.3174513,232.920517 72.1121271,231.513162 C71.9068029,230.10792 68.8192077,226.338068 68.2006577,225.101174 C67.583826,223.863575 67.3776427,220.657228 64.9077384,220.881926 C62.4386931,221.107328 57.5684714,223.245127 57.2935603,226.114075 C57.0186492,228.981614 59.077046,239.388856 59.9687888,243.327056 C60.8605317,247.263846 63.9481268,253.73289 64.2909066,256.996291 C64.6345455,260.258284 62.5074209,259.751833 63.6732157,261.551529 C64.8398697,263.352633 67.1731776,265.602429 67.1731776,265.602429 C65.5254292,265.559462 63.365659,264.126045 61.8218614,263.577331 C60.5864797,264.589528 59.7634646,265.26503 59.7634646,265.26503 C61.6139599,266.657593 63.2608491,268.471377 63.2608491,268.471377 C61.6139599,268.850334 58.0650295,266.657593 57.2935603,265.939828 C55.7497627,266.361753 55.2351635,267.121077 55.2351635,267.121077 C55.2351635,267.121077 57.8081595,269.906203 58.3218996,270.159076 C56.8820527,270.200634 53.638961,268.72425 52.7652592,267.290128 C51.7884657,267.795875 51.1183699,268.302325 51.1183699,268.302325 C51.1183699,268.302325 53.3305451,270.833874 53.7944576,271.002925 C51.8391524,271.044484 48.7515572,269.146175 48.236099,268.471377 C47.0539813,268.343884 45.5625886,268.639724 45.5625886,268.639724 L48.8546489,271.340324 C48.8546489,271.340324 45.8185996,271.593902 43.0909661,268.639724 C39.1296691,266.699152 37.2765965,265.138242 36.5051273,263.40828 C35.732799,261.679022 35.0644214,262.901829 34.2414063,260.37028 C33.4175321,257.838732 32.903792,258.219098 32.594517,255.98339 C32.2861012,253.746977 29.7131052,247.039853 27.8608917,241.639357 C26.0086783,236.23886 24.6719231,230.416439 24.5679723,226.451474 C24.4648807,222.485099 27.2432009,217.084603 28.0662159,210.75714 C28.889231,204.428973 27.9631243,204.006344 30.1246127,197.594355 C32.2861012,191.180958 33.9329904,186.793363 33.0060246,183.08127 C32.0799179,179.368473 27.6555675,170.002307 22.3042513,162.83029 C16.952076,155.658274 17.0551677,151.186857 15.3051868,147.47406 C13.556065,143.761263 10.8799773,114.229347 10.5707024,106.467058 C10.2622865,98.7033609 2.23574177,72.3784956 0.486619965,65.2903004 C-1.26336094,58.2028096 2.03041755,50.8610369 5.22110439,46.2219776 C8.41179122,41.5808052 13.6582976,37.6144306 14.4821717,35.2519337 C15.3051868,32.8901411 14.3790801,32.3836905 12.0122674,28.8399451 C9.64459564,25.2954953 7.43327956,23.6077962 7.07331785,20.9079004 C6.71249705,18.2073001 6.86799363,14.3268601 6.86799363,14.3268601 C7.27778298,14.7058176 7.89633293,15.3397613 7.89633293,15.3397613 L7.89633293,12.8082127 C7.89633293,12.8082127 9.43927142,14.3684187 9.95387062,14.8333107 C10.3670963,14.7487849 10.3670963,14.4952074 10.3670963,14.4952074 C10.3670963,14.4952074 10.5707024,11.7107857 10.7777448,11.6262599 C11.9091757,12.5976025 12.8352825,13.9894612 12.8352825,13.9894612 L14.4821717,13.9894612 C14.4821717,13.9894612 14.0199775,12.2594992 14.4821717,11.7953115 C15.6144618,13.1026444 16.129061,13.3146633 16.129061,13.3146633 C16.129061,13.3146633 17.9297286,13.0610858 18.1874578,13.1449073 C18.0843661,12.048889 17.9297286,11.5424384 19.4219804,12.8082127 C20.3996329,12.8920342 22.098068,12.97656 22.098068,12.97656 C22.3549381,12.9342971 26.8325524,13.4830106 27.8608917,13.9894612 C28.889231,14.4952074 31.8239069,16.6041269 33.2122079,17.1958077 C34.6022271,17.7867841 38.9758907,18.8835067 40.00423,19.2202013 C41.0334284,19.5576002 46.5393821,20.6550273 48.4422823,22.7646511 C50.3469007,24.8735705 52.0968816,29.514743 51.9422441,33.3958873 C51.7884657,37.2770317 52.0444766,44.0693865 51.7352017,48.4161273 C51.4267858,52.7614593 52.1991141,54.2371394 50.9121866,56.3467633 C49.6252591,58.4563871 51.8906983,61.11402 53.1767667,62.9270991 C54.461976,64.7422913 57.7557545,67.231577 59.351957,68.4973513 C60.9464414,69.7624212 63.9833498,72.0833596 64.4962308,70.8591438 C65.0116891,69.6370412 68.4077002,68.5811727 70.6714212,66.9779995 C72.9351422,65.3755306 81.3749126,59.6791941 84.0501412,57.1906128 C86.7253697,54.7020315 89.3507706,52.6339662 91.4598541,50.4398165 C93.5689376,48.2463712 97.2235369,45.2513393 99.8970473,42.5091805 C102.573135,39.7663174 106.175329,37.0241586 108.130634,34.9145347 C110.08594,32.8049109 115.883127,28.4454912 117.804068,26.8148471 C119.72501,25.1834986 123.773075,20.9079004 123.773075,20.9079004" id="path-1"></path>
        <filter x="-9.3%" y="-6.6%" width="118.6%" height="113.1%" filterUnits="objectBoundingBox" id="filter-2">
            <feMorphology radius="0.369147799" operator="dilate" in="SourceAlpha" result="shadowSpreadOuter1"></feMorphology>
            <feOffset dx="0" dy="0" in="shadowSpreadOuter1" result="shadowOffsetOuter1"></feOffset>
            <feGaussianBlur stdDeviation="6" in="shadowOffsetOuter1" result="shadowBlurOuter1"></feGaussianBlur>
            <feComposite in="shadowBlurOuter1" in2="SourceAlpha" operator="out" result="shadowBlurOuter1"></feComposite>
            <feColorMatrix values="0 0 0 0 0.0666666667   0 0 0 0 0.611764706   0 0 0 0 0.631372549  0 0 0 1 0" type="matrix" in="shadowBlurOuter1"></feColorMatrix>
        </filter>
        <mask id="mask1" x="0" y="0" width="100" height="100">
            <rect x="0" y="0" width="100%" height="100%" fill="black" />
            <rect x="0" y="0" width="100%" height="100%" fill="white" id="maskBear" />
        </mask>
    </defs>
    <g id="Bashing-Bear" stroke="none" stroke-width="1" fill="none" fill-rule="evenodd">
        <g id="bashing_backend_bear" transform="translate(52, 10)" fill-rule="nonzero">
            <g id="path3468" transform="translate(98.5, 140) scale(-1, 1) rotate(-180) translate(-98.5, -140)">
                <use fill="#10D5D9" fill-opacity="1" filter="url(#filter-2)" xlink:href="#path-1"></use>
                <use stroke="#10D5D9" stroke-width="0.738295598" fill="currentColor" xlink:href="#path-1" mask="url(#mask1)"></use>
            </g>
        </g>
    </g>
</svg>  
