<?xml version="1.0" encoding="UTF-8"?>
<svg width="300px" height="300px" viewBox="0 0 300 300" version="1.1" xmlns="http://www.w3.org/2000/svg" xmlns:xlink="http://www.w3.org/1999/xlink">
    <title>Design Doctor</title>
    <defs>
        <path d="M286.301529,194.008682 C283.836995,194.417629 281.409803,194.44684 278.907928,194.037893 C273.717472,193.190789 268.489674,192.752632 263.187193,192.577369 C260.274562,192.489737 257.175225,192.781842 254.486643,192.139212 C249.93099,191.058424 245.524703,189.481057 242.089293,186.676851 C239.064639,184.22317 236.264033,181.623437 232.828622,179.461861 C232.604574,179.315809 232.305843,179.140546 232.529891,178.848441 C245.935459,176.803707 259.378368,176.628444 272.970644,179.052915 C272.522547,178.264232 271.850401,178.1766 271.327621,177.972127 C266.883993,176.161077 262.253657,174.758973 257.585981,173.473712 C253.88918,172.451345 250.19238,171.925556 246.271532,172.15924 C239.923491,172.509766 233.687475,173.473712 227.4888,174.437658 C225.136291,174.788184 223.194537,174.729763 221.140759,173.648975 C219.83381,172.947923 218.228129,172.597398 216.697131,172.15924 C209.788969,170.172927 202.656759,168.858456 195.524549,167.427142 C194.366965,167.193458 193.246722,166.901353 192.38787,166.229512 C187.496144,162.432149 182.417712,158.722418 178.496863,154.253214 C168.974803,143.445334 162.626762,133.835085 150.341437,124.867466 C147.951586,123.114837 146.420588,121.595892 144.553517,119.405106 C142.723788,117.301951 143.918713,114.088798 143.097202,111.751959 C142.723788,110.671171 141.864935,105.121179 141.566204,103.397761 C141.528863,103.280919 141.528863,103.134866 141.528863,103.018024 C142.163667,102.17092 142.686446,100.856449 142.947836,99.3375033 C143.171885,98.052242 142.387715,96.8546122 142.201008,95.9490872 C142.910495,95.335667 143.395933,94.1380371 143.395933,92.7651444 C143.395933,92.0348823 143.246568,91.3630412 143.022519,90.7788315 C144.142762,90.6035686 145.561735,88.6756766 146.345905,86.163575 C146.681978,85.0243661 146.868685,83.9435782 146.868685,83.0672636 C147.764879,81.7235814 148.84778,80.496741 150.042705,79.591216 C153.06736,77.3712192 150.938899,71.4999119 152.80597,68.608074 C153.59014,67.4104441 153.739505,66.7678135 155.158479,67.3520232 C160.386277,69.455178 165.800782,71.1201756 171.887433,70.6820184 C174.389308,70.5067555 176.8165,70.7404393 179.281033,71.1201756 C181.782908,71.4999119 184.284783,71.7628063 186.86134,71.8796482 C192.761284,72.1425426 198.250472,70.4483345 203.851684,69.513599 C205.382682,69.2507046 207.137729,68.9878103 208.519361,68.1407062 C210.685163,66.797024 212.141478,65.1320264 213.037672,63.0872925 C214.718036,59.2022981 218.078763,56.2228287 221.551515,53.3017803 C222.634416,52.3962553 224.165414,51.8120456 225.509705,51.110994 C225.621729,51.052573 225.771095,50.994152 225.883119,50.9357311 C226.219192,50.6144157 226.70463,50.3515214 227.302093,50.147048 C227.414117,50.1178375 227.526141,50.0594165 227.638166,50.0302061 C228.683725,49.3291544 229.617261,48.5696819 230.550796,47.7809988 C230.588137,47.2844206 230.961552,46.9631052 231.44699,46.7878423 C231.148259,46.1452117 231.521673,45.619423 232.007111,45.1812657 C232.791281,44.538635 232.940647,45.4733705 233.426085,45.6486334 C234.172913,45.9115278 234.994424,46.3788955 235.703911,45.9991592 C237.197568,45.2104762 239.064639,44.7138979 239.811467,43.1949528 C240.259564,42.2310068 240.931709,41.3254818 241.305124,40.3615358 C242.238659,38.0539076 244.815217,37.2068035 247.317091,36.6225938 C249.482893,36.1260156 251.536671,35.483385 253.627791,34.8699648 C255.046764,34.461018 256.167007,33.6723349 257.063201,32.708389 C257.473956,32.2410212 258.034077,31.744443 257.473956,31.1310228 C256.876494,30.4883922 256.092324,30.6052341 255.308154,30.8973389 C252.918304,31.744443 250.379087,32.2118107 247.765188,32.4162841 C246.607604,32.5039156 245.450021,32.7668099 244.329778,33.0297043 C241.715879,33.613914 241.379806,33.555493 240.334247,31.627601 C239.811467,30.6636551 239.176663,30.0210244 237.683006,29.874972 C236.226691,29.7581301 234.957083,27.8886591 235.367839,26.7786607 C236.039984,24.9676107 237.272251,23.419455 238.877932,22.0173518 C240.483612,20.644459 242.01461,19.2131453 242.051952,17.1976219 C242.051952,16.4089388 242.425366,15.4742033 241.081075,15.0652565 C239.699443,14.6563097 238.765907,15.2697299 238.131103,16.0876235 C237.010861,17.4897267 235.591887,18.6289356 233.874182,19.5052501 C231.783063,20.6152485 230.40143,22.0465622 229.579919,23.9452437 C228.870432,25.6394518 227.414117,26.9831341 225.285657,27.8010276 C224.016048,28.2976058 223.082513,29.0862889 222.522392,30.1086559 C221.924929,31.1894438 220.954052,31.744443 219.609761,32.2118107 C217.518642,32.9712833 215.390182,33.8768083 214.269939,35.5125954 C212.17882,38.5796963 209.191507,40.974956 205.905462,43.1657423 C202.582076,45.3857391 198.549203,46.7294214 194.77772,48.4236294 C193.657478,48.9202077 191.977114,48.8325762 191.753066,50.2638899 C191.753066,50.3515214 191.34231,50.4683633 191.118262,50.4683633 C189.288532,50.3807319 187.981583,51.2570464 186.562609,51.9288875 C185.629074,52.3670448 184.882245,52.3670448 183.986051,52.016519 C181.29747,51.0233625 178.422181,50.6144157 175.472209,50.3807319 C172.33553,50.147048 169.049485,50.1178375 166.398245,48.5696819 C163.933712,47.1383681 161.394495,45.8531068 158.631231,44.8015294 C153.85153,43.0196899 148.84778,41.7344286 143.507958,42.786006 C139.101671,43.63311 134.620701,43.3702157 130.177072,43.3702157 C131.484022,40.069431 132.865654,37.3528559 133.5378,36.2136471 C135.180822,33.4678615 132.118826,33.8183874 132.118826,33.8183874 C132.118826,33.8183874 127.74988,35.1620696 123.679666,35.0744382 C123.829032,34.8115438 124.015739,34.5778599 124.239787,34.3441761 C126.629638,31.8028639 125.248006,28.6773421 127.077735,26.1652405 C126.293565,24.3541905 127.339125,22.7768243 128.01127,21.1118267 C128.944806,18.7457775 128.944806,16.4965702 126.1442,14.7439412 C124.389153,13.6631533 122.970179,12.2902605 120.953743,11.472367 C120.057549,11.1218412 119.609452,9.83657986 118.22782,10.9173678 C118.078454,11.0342097 117.256943,10.8005258 116.846187,10.5960524 C115.87531,10.0410532 114.755068,9.92421131 113.634826,10.0410532 C111.805096,10.2163162 109.975367,9.9534218 108.033613,10.3039476 C106.278567,10.5960524 104.971617,11.0926307 103.627326,11.8521033 C102.805815,12.2902605 101.984304,12.7284178 101.125452,13.1373646 C98.5488939,14.3642049 97.1299201,16.116834 97.0552373,18.5120937 C96.943213,20.9949848 96.5697989,23.4486655 96.8311888,25.9899776 C97.1672615,29.5244462 97.7273827,33.1465462 97.0925787,36.7394358 C96.8685302,37.9662761 96.7938474,38.6673277 96.4577746,39.163906 C90.0350513,41.1502189 85.5914229,40.3323253 85.1059845,40.4783777 C83.5003036,40.9457455 82.4920854,42.8736374 84.0230834,43.6038995 C88.9148088,45.9407383 90.0350513,50.205469 90.0350513,50.205469 C89.5496129,50.4683633 88.840126,50.7896787 87.8692492,51.1986254 C87.1224209,51.5199408 86.3009097,51.8120456 85.5540814,52.1333609 C80.3262833,54.1780948 74.986461,56.1059868 70.8415639,59.4944029 C67.1447638,62.5322933 64.6055476,65.9791304 65.6137658,70.3899135 C66.3605941,73.5738563 65.9124971,76.4949047 63.1865738,79.0946378 C61.8422829,80.3798991 60.9834304,81.9280548 60.6473576,83.5930524 C60.1992606,85.9006806 60.049895,88.2375193 58.8923111,90.4867266 C58.2201656,91.8304089 57.3613131,92.5314605 55.4569009,92.4730395 C53.216416,92.3854081 50.9012483,92.1225137 48.8474705,92.9696178 C45.4494017,94.371721 42.3500643,93.5538275 39.2133854,92.5314605 C36.9729005,91.8011984 35.665951,90.1069903 33.7241974,89.0846234 C32.9400277,88.6756766 32.6412963,88.2667298 32.5292721,87.5948887 C32.1185165,85.0535766 30.9609327,82.6875274 29.1312033,80.555162 C28.3096922,79.591216 26.9654013,78.3935862 25.6957931,79.2406902 C23.6046739,80.6427935 21.6629203,80.1754257 19.5344597,79.7956894 C19.2357283,79.7372685 18.8996556,79.8248999 18.6009243,79.8833209 C16.6591707,80.3798991 14.6800757,80.8180564 12.7756635,81.4022661 C11.2446655,81.8988443 10.6845443,82.9796322 11.1699827,84.177262 C11.916811,85.9591016 11.2073241,88.1206774 13.3731262,89.5519911 C13.5598333,89.6688331 13.5971747,89.9901484 13.6345161,90.2530428 C13.6718575,91.1293573 14.2693201,91.7719879 14.7547585,92.5314605 C15.6882939,94.0504057 17.7047303,94.9851412 18.5262415,96.4748759 C19.9825566,99.1622404 22.44709,100.739607 25.8825002,101.615921 C31.1849812,102.959603 36.0020237,105.004337 40.6323592,107.458018 C45.0386461,109.824067 49.8556887,111.693538 54.747414,113.387746 C55.9423393,113.796693 57.2492889,114.264061 58.4442141,113.446167 C59.8258465,112.482221 61.4315273,112.365379 63.1492324,112.453011 C67.7048851,112.657484 71.2149781,111.372223 73.5674872,108.18828 C74.5757054,106.786177 75.5839236,105.413284 76.3307519,103.894339 C76.8535317,102.813551 77.3389701,101.732763 78.6832611,100.593554 C79.0940166,102.667499 79.2060409,104.507759 79.7661621,106.318809 C80.3636248,108.217491 80.5129904,110.203803 80.6250147,112.190116 C80.7743803,114.731428 82.0439884,117.155899 81.2598187,119.843263 C80.8490632,121.274577 80.3636248,122.326154 78.9073096,123.231679 C74.986461,125.714571 70.7295397,127.905357 67.8915921,131.264563 C66.2859113,133.134033 64.456182,134.828242 62.3650627,136.376397 C61.2448203,137.194291 60.3486263,138.187447 60.1992606,139.385077 C59.9378707,141.459021 59.4524323,143.503755 59.7885051,145.60691 C60.2366021,148.352696 60.7967233,151.01085 58.8923111,153.785846 C52.2081978,163.600568 49.9303715,174.320816 49.0341775,185.274748 C48.8474705,187.582376 49.1088604,189.977636 48.2500078,192.226843 C47.1671068,195.001839 47.8019108,197.572362 49.4822745,200.113674 C50.4904927,201.661829 52.133515,202.976301 52.4322463,204.787351 C52.7309776,206.919716 53.029709,209.052082 53.216416,211.184447 C53.4778059,214.076285 54.1499514,216.968123 54.8967797,219.77233 C55.7929737,223.219167 57.5853616,226.578372 59.6764808,229.733105 C64.0454264,236.305464 67.2941295,243.140717 69.049176,250.414127 C69.3852487,251.845441 69.6092972,253.685702 68.7131033,254.562016 C65.9498386,257.249381 63.559988,260.19964 60.1992606,262.478057 C59.1910424,263.179109 58.0708,263.646477 56.6518262,263.588056 C55.8303151,263.558845 54.8220969,263.529635 54.3739999,264.055424 C53.5898302,264.960949 52.4322463,265.019369 51.3493453,265.311474 C48.7354462,265.954105 46.0842058,266.450683 43.3582825,266.830419 C42.4994299,266.947261 41.6779188,267.122524 41.3791875,267.940418 C40.7443834,269.634626 41.4165289,271.124361 43.4703067,271.825412 C52.133515,274.775671 61.0207718,275.651986 70.1694185,273.198305 C72.5966104,272.555674 75.0238024,271.971465 77.4883358,271.445676 C78.9073096,271.124361 80.2889419,271.182782 81.6332329,271.796202 C83.3882794,272.584885 85.2926915,272.789358 87.1971037,272.321991 C89.4375886,271.766991 91.6780735,271.153571 93.9185584,270.569361 C94.777411,270.335678 95.2628494,269.985152 95.3001908,269.196469 C95.4868978,264.960949 94.964118,260.81306 92.8729988,256.898855 C91.4166836,254.18228 89.6242957,251.582547 88.392029,248.77834 C86.412934,244.279926 84.8072531,239.752301 84.0977663,235.078623 C83.3135965,229.762315 83.3135965,224.387586 83.3135965,219.042067 C83.3135965,217.756806 83.1642309,216.471545 82.4920854,215.332336 C79.9528692,210.950763 78.0111156,206.364717 74.8744367,202.187618 C73.7541943,200.697883 73.1940731,199.237359 73.7168529,197.48473 C74.0155842,196.520784 74.0155842,195.410786 73.7541943,194.44684 C73.2687559,192.752632 74.3889984,191.642633 75.5465822,190.503424 C76.2187277,189.831583 76.8161903,189.948425 77.0775802,190.795529 C77.8990914,193.628946 78.7952853,196.462363 79.3554066,199.354201 C80.923746,207.416295 83.2762551,215.273915 88.7281017,222.401273 C91.6407321,226.198636 95.4495564,229.528631 98.3248454,233.355205 C100.30394,236.013359 103.067205,238.087303 106.278567,239.839932 C110.05005,241.913877 114.306971,241.884666 117.929088,239.664669 C119.236038,238.875986 119.124014,238.320987 117.555674,237.824409 C115.725945,237.240199 113.784191,236.831252 112.029145,236.07178 C110.908902,235.575201 110.834219,235.049413 111.655731,234.348361 C112.775973,233.413626 113.896215,232.537311 115.240506,231.807049 C120.318939,228.915211 126.1442,228.85679 132.044143,229.061263 C132.716289,229.090474 133.201727,229.411789 133.612483,229.762315 C136.898527,232.420469 141.006083,234.173098 145.15098,235.867306 C150.154729,237.88283 155.233162,238.642302 160.535643,236.655989 C163.298908,235.633622 166.024831,234.582045 168.564047,233.238363 C170.692508,232.099154 172.148823,230.550998 173.194383,228.769159 C174.949429,225.760479 177.525987,223.365219 180.961397,221.466538 C182.156322,220.794696 182.865809,220.99917 183.015175,222.050747 C183.16454,223.043904 183.836686,223.744955 184.658197,224.446007 C192.499894,231.368892 200.341591,238.262566 208.145947,245.214661 C209.527579,246.441502 211.618699,247.639131 211.357309,249.333339 C210.983895,252.195967 212.850965,254.591227 213.709818,257.103328 C214.643353,259.819903 215.203474,262.565689 216.024986,265.282264 C216.92118,268.320154 217.630666,271.445676 220.580638,273.782515 C223.045172,275.710407 224.538828,278.047245 225.547046,280.559347 C226.555265,283.042238 228.384994,285.028551 230.849527,286.635128 C233.015329,288.037231 235.069107,289.731439 238.168445,289.935912 C241.454489,290.169596 244.591168,289.76065 247.615823,288.767493 C248.736065,288.416967 249.258845,287.715916 249.333528,286.839601 C249.632259,282.837765 248.960114,278.92356 246.271532,275.447512 C240.558295,268.05726 234.09823,261.017533 229.729285,253.043071 C228.646384,251.085969 227.003362,249.333339 226.219192,247.259395 C225.024267,244.133873 223.119854,241.212825 221.626198,238.174935 C220.692662,236.276253 219.684444,234.377572 218.937616,232.420469 C216.883838,226.958109 214.718036,221.524959 212.290844,216.150229 C211.544016,214.456021 210.909212,212.615761 208.892775,211.388921 C208.145947,210.921553 208.855434,210.629448 209.303531,210.395764 C210.535798,209.782344 211.431992,208.93524 211.992113,207.854452 C213.485769,205.050245 213.485769,205.079456 217.294594,205.634455 C218.414836,205.780508 219.236347,206.160244 219.83381,206.919716 C220.505955,207.73761 221.402149,208.467872 221.999612,209.285766 C224.277438,212.411288 230.364089,212.265235 233.202036,210.424975 C236.525422,208.292609 239.774126,206.101823 243.06017,203.940247 C243.84434,203.443669 244.031047,203.063933 243.097511,202.479723 C232.977988,196.082627 224.016048,188.692374 214.083232,182.120015 C213.224379,181.535806 212.402868,180.893175 211.319967,180.075282 C215.203474,179.929229 218.564202,179.812387 221.887588,179.695545 C222.48505,179.666335 223.00783,179.812387 223.455927,180.104492 C226.779313,182.090805 230.364089,183.814224 233.351402,186.063431 C237.645665,189.276584 242.53739,191.408949 248.287968,192.606579 C253.590449,193.687367 259.116979,194.067103 264.270094,195.498417 C269.833965,197.046573 275.285811,196.929731 280.812341,195.439996 C283.16485,194.797366 285.778749,194.768155 288.280624,194.067103 C287.64582,193.716578 286.973674,193.891841 286.301529,194.008682 Z" id="path-4"></path>
        <filter x="-6.6%" y="-6.6%" width="113.4%" height="113.1%" filterUnits="objectBoundingBox" id="filter-2">
            <feMorphology radius="0.369147799" operator="dilate" in="SourceAlpha" result="shadowSpreadOuter1"></feMorphology>
            <feOffset dx="0" dy="0" in="shadowSpreadOuter1" result="shadowOffsetOuter1"></feOffset>
            <feGaussianBlur stdDeviation="6" in="shadowOffsetOuter1" result="shadowBlurOuter1"></feGaussianBlur>
            <feComposite in="shadowBlurOuter1" in2="SourceAlpha" operator="out" result="shadowBlurOuter1"></feComposite>
            <feColorMatrix values="0 0 0 0 0.0666666667   0 0 0 0 0.611764706   0 0 0 0 0.631372549  0 0 0 1 0" type="matrix" in="shadowBlurOuter1"></feColorMatrix>
        </filter>
        <mask id="mask4" x="0" y="0" width="100" height="100">
            <rect x="0" y="0" width="100%" height="100%" fill="black" />
            <rect x="0" y="0" width="100%" height="100%" fill="white" id="maskDoctor" />
        </mask>
    </defs>
    <g id="Design-Doctor" stroke="none" stroke-width="1" fill="none" fill-rule="evenodd">
        <g id="Doctor" fill-rule="nonzero">
            <use fill="#10C1C5" fill-opacity="1" filter="url(#filter-2)" xlink:href="#path-4"></use>
            <use stroke="#10D5D9" stroke-width="0.738295598" fill="currentColor" xlink:href="#path-4" mask="url(#mask4)"></use>
        </g>
    </g>
</svg>