<?xml version="1.0" encoding="UTF-8"?>
<svg width="300px" height="300px" viewBox="0 0 300 300" version="1.1" xmlns="http://www.w3.org/2000/svg" xmlns:xlink="http://www.w3.org/1999/xlink">
    <title>Hulk</title>
    <defs>
        <path d="M282.273567,136.068668 C282.400014,136.322098 282.9058,137.082388 282.273567,136.068668 C282.14712,135.941953 282.14712,135.941953 282.273567,136.068668 C281.261994,134.421372 279.87108,133.154222 278.73306,131.633642 C277.847933,130.239776 276.83636,129.099341 275.318999,128.33905 C273.928086,127.57876 272.284279,127.32533 270.766919,126.945185 C269.628899,126.691755 267.226412,126.81847 267.352858,125.424605 C267.352858,124.791029 268.111539,123.904024 268.364432,123.270449 C268.743772,122.383444 269.249559,121.496438 269.376005,120.609433 C269.755345,118.835423 269.628899,116.807982 268.490879,115.414116 C267.352858,113.893536 265.835498,112.753101 264.191691,111.866095 C263.559458,111.48595 262.800778,111.105805 262.042098,111.105805 C260.904078,111.105805 260.145398,112.119525 259.260271,112.626386 C257.742911,113.513391 256.478444,113.133246 254.834637,113.386676 C252.937937,113.640106 252.558597,115.920977 252.558597,117.441557 C252.558597,118.328562 252.558597,119.088853 252.81149,119.975858 C253.064383,120.736148 253.94951,121.749868 254.075957,122.510159 C254.202403,123.904024 251.67347,125.171175 250.788343,125.931465 C250.029663,126.56504 249.397429,127.198615 248.891643,127.83219 C248.259409,128.592481 248.132963,128.972626 247.374283,128.08562 C246.109816,126.691755 246.109816,124.410884 245.983369,122.636874 C245.477582,118.962138 243.960222,115.160686 240.925502,112.753101 C239.408142,111.612665 237.890781,110.72566 236.120528,109.96537 C234.476721,109.331795 232.327127,109.20508 230.809767,108.191359 C229.5453,107.304354 229.5453,104.770053 229.16596,103.376188 C228.660174,101.222032 227.775047,99.0678764 226.763473,97.1671508 C225.878346,95.5198553 224.866773,93.8725598 223.728753,92.3519793 C222.590733,90.5779688 222.084946,89.3108184 221.832053,87.2833778 C221.199819,83.3552115 220.314692,79.1736152 218.417992,75.6255941 C215.256825,69.7967023 209.313831,65.1082459 203.24439,62.8273752 C200.083223,61.6869398 196.795609,61.0533646 193.381549,61.0533646 C191.737742,61.0533646 190.093935,61.4335097 188.450128,61.3067947 C186.806322,61.1800797 185.036068,59.152639 183.645154,58.2656338 C179.978201,55.858048 175.80546,54.2107525 171.506273,52.8168871 C169.609573,52.1833119 167.207086,51.8031667 165.436832,50.5360164 C164.804599,50.0291562 164.425259,49.522296 164.298812,48.7620058 C164.172365,48.1284306 163.540132,46.4811351 163.666579,45.9742749 C163.793025,45.3406997 164.804599,44.9605546 165.310385,44.4536945 C165.816172,43.8201193 166.321959,43.059829 166.448406,42.2995388 C166.827746,40.5255283 166.069066,39.0049478 164.931045,37.7377974 C164.678152,37.4843673 164.425259,37.3576523 164.298812,37.1042222 C164.045919,36.597362 164.425259,36.470647 164.298812,35.9637868 C164.172365,35.2034966 163.540132,34.6966364 163.793025,33.8096312 C164.045919,32.9226259 165.057492,32.4157657 165.183939,31.5287605 C165.310385,30.6417552 164.298812,30.00818 164.425259,29.2478898 C164.678152,29.3746048 165.436832,29.8814649 165.689725,29.6280349 C166.069066,29.2478898 165.310385,28.2341694 165.057492,27.8540243 C164.172365,26.5868739 163.160792,25.4464386 162.402112,24.0525731 C162.149218,23.545713 162.149218,22.9121378 162.022772,22.5319927 C161.769878,22.0251325 161.137645,22.1518476 160.884752,21.7717024 C160.631858,21.3915573 161.011198,21.0114122 160.631858,20.504552 C160.378965,20.1244069 159.240945,19.8709768 158.861605,19.4908317 C157.976478,18.8572565 157.597138,17.209961 156.712011,16.7031009 C156.206224,16.4496708 155.700438,16.8298159 155.194651,16.7031009 C154.688864,16.4496708 154.815311,16.1962407 154.562417,15.6893805 C154.183077,14.8023753 154.056631,15.1825204 153.171504,15.0558054 C152.412824,14.9290903 152.15993,14.5489452 151.527697,14.1688001 C151.148357,13.91537 150.516124,13.2817948 150.010337,13.4085098 C149.50455,13.6619399 149.88389,14.2955151 149.50455,14.6756602 C149.251657,14.4222302 149.12521,14.1688001 148.872317,13.91537 C148.36653,13.5352249 148.36653,13.788655 147.734297,13.6619399 C146.975616,13.5352249 145.837596,12.6482196 145.078916,13.1550798 C144.826023,13.4085098 145.078916,13.788655 144.573129,13.788655 C144.320236,13.91537 143.940896,13.2817948 143.561556,13.4085098 C142.802876,13.788655 143.561556,14.8023753 142.170642,14.6756602 C141.664856,14.6756602 141.159069,14.2955151 140.653282,14.4222302 C139.894602,14.6756602 140.273942,14.6756602 140.273942,15.3092354 C140.147496,16.3229557 140.273942,15.9428106 139.262369,16.4496708 C138.377242,16.9565309 138.883029,17.209961 138.630135,17.9702513 C138.503689,18.2236813 138.124349,18.4771114 137.997902,18.8572565 C137.745009,19.4908317 137.871455,20.1244069 137.618562,20.7579821 C137.239222,21.6449874 136.227648,22.5319927 135.721862,23.4189979 C135.342522,23.9258581 134.963182,24.5594333 134.836735,25.1930085 C134.583842,25.8265837 134.836735,26.3334438 134.836735,27.0937341 C134.710288,28.1074544 133.698715,29.2478898 133.192928,30.2616101 C132.687141,31.2753304 131.928461,32.1623357 131.802014,33.429486 C131.675568,34.8233515 131.802014,36.0905019 131.675568,37.4843673 C131.549121,38.7515177 130.663994,40.2720982 130.916888,41.5392486 C131.043334,42.5529689 131.675568,43.3132591 131.549121,44.4536945 C131.422674,45.7208449 131.422674,46.9879953 131.296228,48.3818607 C131.296228,49.6490111 131.296228,51.4230216 130.790441,52.690172 C130.284654,53.8306074 129.273081,54.3374675 128.261507,54.9710427 C127.249934,55.6046179 125.985467,56.1114781 125.226787,57.1251984 C124.215214,58.3923488 125.353234,57.5053435 125.732574,57.7587736 C125.732574,58.7724939 124.34166,59.5327841 123.58298,59.6594992 C122.8243,59.7862142 122.571407,59.5327841 121.812727,59.9129293 C121.054046,60.2930744 120.295366,60.9266496 119.536686,61.4335097 C119.0309,61.8136549 118.019326,62.7006601 117.387093,62.8273752 C116.754859,62.9540902 115.616839,62.1938 114.984606,62.0670849 C113.340799,61.6869398 111.444099,61.5602248 109.800292,61.5602248 C106.133338,61.6869398 102.845724,63.0808052 99.8110038,64.9815308 C97.0291767,66.6288263 95.1324765,68.9096971 92.9828829,71.0638527 C90.8332893,73.0912933 89.1894824,76.0057393 88.936589,78.9201852 C88.8101424,79.9339055 89.3159291,81.4544859 88.8101424,82.8483514 C88.3043556,84.1155018 87.0398888,85.2559371 86.2812087,86.3963725 C85.3960819,87.9169529 84.3845085,89.4375334 83.6258284,91.0848289 C82.9935949,92.4786944 82.6142549,94.2527049 81.7291281,95.3931403 C81.3497881,96.0267155 80.970448,96.0267155 80.7175547,96.7870057 C80.4646613,97.4205809 80.3382146,98.1808711 80.3382146,98.9411614 C80.2117679,100.588457 80.591108,101.982322 79.5795345,103.249473 C77.5563876,105.657058 74.1423272,105.276913 71.4869468,106.670779 C68.7051198,108.191359 66.9348662,111.23252 64.4059326,113.259961 C63.3943591,114.146966 62.1298923,114.907256 60.8654255,115.414116 C60.1067454,115.667547 58.2100451,116.427837 57.451365,115.667547 C56.8191316,115.033971 56.9455783,112.879816 56.5662382,111.99281 C55.9340048,110.2188 54.7959847,108.951649 53.5315179,107.684499 C51.0025842,105.150198 48.0943105,103.376188 45.9447169,100.588457 C43.92157,97.9274411 42.0248697,95.1397102 38.3579159,95.9000004 C36.0818756,96.4068606 34.9438555,97.5472959 35.0703022,99.9548817 C35.0703022,100.715172 35.1967489,101.475462 35.1967489,102.109037 C35.1967489,102.869328 34.6909621,103.629618 34.8174088,104.263193 C34.9438555,106.037204 36.8405557,106.290634 37.7256825,107.431069 C39.7488294,110.092085 33.6793887,112.499671 32.4149218,109.71194 C32.1620285,108.951649 32.2884752,108.191359 32.0355818,107.431069 C31.6562417,106.290634 31.4033484,106.290634 31.9091351,105.150198 C32.6678152,103.629618 32.6678152,101.982322 32.0355818,100.461742 C30.6446683,97.4205809 27.6099479,99.0678764 25.0810142,99.3213065 C22.5520806,101.348747 20.6553803,104.136478 19.3909135,107.177639 C19.1380201,108.698219 19.0115735,110.2188 18.7586801,111.73938 C18.7586801,113.259961 18.1264467,114.907256 18,116.301122 C18,116.554552 18.1264467,117.188127 18.1264467,117.694987 C18.37934,118.075132 18.5057867,118.455277 18.6322334,118.962138 C18.8851268,119.595713 19.1380201,120.356003 19.2644668,120.989578 C19.5173602,121.496438 19.7702536,122.003299 19.8967002,122.510159 C19.8967002,122.636874 20.0231469,122.636874 20.0231469,122.763589 C21.0347204,123.650594 21.7934005,124.410884 22.2991872,125.931465 C22.8049739,127.198615 23.563654,128.212335 24.7016742,128.972626 C25.966141,129.732916 27.8628413,130.239776 28.8744147,131.126781 C29.3802014,132.013787 29.5066481,132.647362 30.0124349,133.154222 C30.5182216,133.661082 31.150455,133.787797 31.7826884,134.041227 C32.5413685,134.421372 32.9207086,134.928233 33.552942,135.435093 C34.1851754,135.941953 34.9438555,136.195383 35.5760889,136.702243 C36.0818756,137.209103 36.0818756,137.842678 36.5876624,138.222824 C37.0934491,138.729684 37.5992358,138.856399 38.3579159,139.109829 C40.2546162,139.743404 41.898423,139.996834 43.7951233,140.123549 C45.6918235,140.123549 47.4620771,140.376979 49.3587773,140.757124 C51.2554776,141.010554 53.2786245,140.503694 55.1753247,140.503694 C56.8191316,140.630409 58.3364918,140.883839 59.853852,141.517415 C61.7505522,142.15099 63.2679124,142.784565 65.2910594,142.15099 C66.8084196,141.64413 68.0728864,140.376979 69.5902466,139.870119 C71.2340534,139.236544 73.2572004,139.363259 75.0274539,139.109829 C78.9473011,138.476254 82.8671483,137.969393 86.9134421,137.462533 C88.8101424,137.209103 90.7068426,136.955673 92.6035428,136.702243 C93.4886696,136.575528 94.3737964,136.448813 95.2589232,136.195383 C95.8911566,136.068668 97.6614101,135.308378 98.1671969,135.561808 C99.1787703,136.068668 98.0407502,138.602969 97.6614101,139.363259 C96.9027301,141.137269 96.14405,142.65785 95.8911566,144.558576 C95.7647099,145.825726 96.2704966,147.346306 95.6382632,148.486742 C94.7531364,149.880607 93.1093296,150.894327 91.8448627,151.908048 C89.0630357,154.062203 86.2812087,156.216359 83.752275,158.623945 C81.2233414,161.158246 79.4530878,164.706267 77.6828343,167.747428 C77.3034942,168.381003 76.6712608,169.268008 76.4183674,170.028298 C76.2919208,170.535159 76.4183674,171.042019 76.1654741,171.548879 C75.406794,173.196174 74.3952205,174.59004 73.8894338,176.36405 C73.3836471,178.138061 73.004307,179.912071 72.3720736,181.559367 C71.6133935,183.460093 70.3489267,185.234103 69.3373532,187.008114 C68.3257797,188.782124 66.9348662,190.302705 66.0497395,192.20343 C65.038166,194.230871 65.6703994,196.004881 66.4290795,197.905607 C67.1877596,199.806333 67.1877596,201.453628 67.1877596,203.481069 C67.1877596,205.508509 67.819993,207.28252 68.8315665,209.056531 C70.60182,212.477837 72.2456269,216.532718 75.0274539,219.320449 C75.786134,220.080739 76.5448141,220.714314 77.3034942,221.347889 C77.809281,221.854749 78.567961,223.248615 79.0737478,223.502045 C80.591108,224.262335 78.8208544,221.221174 79.4530878,220.714314 C79.9588746,221.474604 80.4646613,222.234895 80.8440013,223.1219 C81.0968947,223.755475 82.4878082,225.149341 82.3613615,225.656201 C82.2349149,226.163061 80.0853212,227.050066 79.7059812,227.303496 C78.567961,227.937071 77.4299409,228.317216 76.2919208,228.950792 C74.2687738,229.837797 72.3720736,230.978232 70.4753734,232.118668 C69.4637999,232.625528 68.9580132,232.625528 67.9464397,232.752243 C66.8084196,232.878958 65.6703994,233.639248 64.7852726,234.272823 C64.0265925,234.779683 62.8885724,235.413259 62.256339,236.173549 C62.0034456,236.553694 62.0034456,236.933839 61.4976589,237.313984 C61.1183188,237.694129 60.4860854,237.947559 60.1067454,238.327705 C59.3480653,238.96128 59.3480653,239.975 58.5893852,240.608575 C57.9571518,241.24215 56.9455783,241.495581 56.6926849,242.382586 C56.5662382,242.762731 56.9455783,243.142876 56.8191316,243.523021 C56.6926849,244.029881 56.1868982,244.410026 55.9340048,244.790172 C55.4282181,245.803892 55.6811115,246.817612 56.3133449,247.704618 C57.3249183,249.225198 57.8307051,251.379354 59.474512,252.266359 C61.4976589,253.280079 64.4059326,252.519789 66.4290795,251.506069 C67.440653,250.999209 68.3257797,250.112203 69.4637999,250.112203 C70.7282667,250.112203 71.8662869,250.492348 73.1307537,250.492348 C75.9125807,250.365633 78.567961,249.732058 81.2233414,248.971768 C83.6258284,248.211478 85.1431886,247.071042 87.2927822,245.803892 C89.1894824,244.536742 91.5919694,243.269591 93.8680097,243.016161 C96.52339,242.636016 99.1787703,243.523021 101.834151,243.523021 C106.259785,243.649736 110.811865,242.002441 112.455672,237.567414 C114.225926,232.625528 110.685418,227.176781 107.777145,223.248615 C106.133338,220.967744 105.248211,218.560158 105.501104,215.645713 C105.627551,214.631992 105.627551,213.238127 106.386231,212.477837 C106.765571,212.097691 107.144911,211.844261 107.397805,211.337401 C107.650698,210.830541 107.777145,210.196966 108.156485,209.816821 C108.788718,211.083971 107.903591,211.844261 107.777145,213.111412 C107.777145,213.491557 107.524251,215.392282 108.030038,215.645713 C109.294505,216.152573 109.800292,209.690106 109.800292,208.929815 C109.673845,208.169525 109.168058,207.02909 109.420952,206.395515 C109.547398,206.142085 109.800292,206.01537 109.926738,205.635224 C109.926738,205.255079 109.800292,204.748219 109.673845,204.494789 C108.788718,202.594064 106.133338,202.340633 105.627551,200.186478 C105.248211,198.412467 108.282932,198.919327 109.420952,198.665897 C111.823439,198.159037 114.099479,197.272032 116.501966,196.511742 C121.054046,194.991161 124.721,192.583575 128.261507,189.288984 C129.905314,187.641689 131.675568,186.121108 133.572268,184.727243 C134.457395,184.093668 135.342522,183.333378 136.354095,183.079947 C137.492115,182.699802 139.135922,182.953232 140.273942,183.079947 C142.170642,183.206663 143.940896,183.713523 145.33181,185.107388 C147.102063,187.008114 148.240083,189.795845 149.378103,192.076715 C151.907037,196.638457 154.688864,200.313193 158.735158,203.607784 C159.746731,204.494789 160.884752,205.128364 161.769878,206.142085 C162.528558,206.902375 162.781452,207.78938 163.034345,208.8031 C163.666579,211.210686 164.425259,213.491557 165.689725,215.645713 C166.448406,216.786148 167.207086,217.926583 167.712872,219.193734 C168.092212,220.207454 167.712872,221.728034 168.345106,222.488325 C168.597999,222.86847 169.103786,222.86847 169.356679,223.37533 C169.736019,223.88219 169.483126,224.64248 169.483126,225.149341 C169.483126,226.289776 169.356679,227.556926 169.483126,228.697362 C169.609573,231.485092 171.000486,234.146108 172.517846,236.553694 C173.276526,237.694129 174.035207,238.96128 175.04678,239.848285 C176.311247,240.862005 175.80546,240.22843 176.437694,239.341425 C176.94348,240.608575 177.828607,241.622296 178.84018,242.382586 C179.345967,242.762731 179.978201,243.142876 180.483987,243.523021 C180.863327,243.903166 181.242667,244.410026 181.622008,244.790172 C183.012921,245.677177 182.254241,244.029881 182.507134,243.396306 C182.760028,242.382586 184.024494,243.523021 184.530281,244.156596 C185.162515,245.170317 184.909621,246.437467 185.288961,247.577902 C185.794748,249.098483 186.806322,249.605343 186.679875,251.379354 C186.426981,254.040369 186.426981,256.8281 187.944342,259.108971 C188.703022,260.122691 189.588149,261.009697 190.726169,261.769987 C191.990635,262.656992 193.634442,263.037137 194.898909,263.924143 C195.910483,264.557718 196.163376,265.698153 196.542716,266.711873 C196.922056,267.852309 197.807183,268.739314 198.060076,270.006464 C198.565863,273.047625 199.198096,275.581926 201.34769,277.989512 C202.232817,279.003232 203.370837,279.890237 204.00307,281.030673 C204.76175,282.297823 204.255964,283.691689 204.76175,284.958839 C205.899771,287.619855 209.313831,288 211.842765,288 C214.751038,288 216.394845,285.338984 215.889059,282.551253 C215.762612,281.790963 215.509718,281.030673 215.256825,280.397098 C215.003932,279.890237 214.498145,279.129947 214.498145,278.623087 C214.498145,276.975792 215.889059,278.623087 216.015505,279.510092 C216.521292,281.917678 217.406419,284.071834 219.935352,284.705409 C220.946926,284.958839 222.211393,284.958839 223.222966,284.451979 C223.728753,284.198549 223.981646,283.945119 224.23454,283.564974 C224.487433,283.184829 224.487433,282.297823 224.740326,282.044393 C225.246113,281.537533 226.51058,282.044393 227.26926,282.044393 C228.40728,282.044393 229.418854,281.664248 230.051087,280.523813 C230.30398,280.016953 230.30398,279.510092 230.68332,279.256662 C231.06266,279.003232 231.694894,279.003232 232.200681,278.876517 C233.591594,278.369657 233.718041,277.355937 234.223828,276.215501 C234.729614,275.201781 235.994081,274.948351 236.373421,273.934631 C236.879208,272.540765 235.994081,271.65376 235.361848,270.64004 C234.476721,269.246174 233.970934,267.979024 232.832914,266.838588 C231.694894,265.698153 230.430427,264.811148 229.292407,263.797427 C226.51058,261.516557 224.487433,258.855541 222.337839,255.941095 C220.061799,252.899934 217.532865,250.238918 214.751038,247.577902 C213.613018,246.564182 211.463425,245.170317 210.831191,243.776451 C210.578298,243.142876 210.704745,242.509301 210.451851,241.875726 C210.072511,240.98872 209.313831,240.355145 209.946064,239.341425 C210.451851,240.101715 210.831191,241.24215 211.463425,240.101715 C211.842765,239.341425 211.463425,238.20099 211.716318,237.313984 C211.969211,236.680409 212.601445,236.046834 212.727891,235.286544 C212.854338,234.019393 212.222105,232.498813 211.969211,231.231662 C211.716318,230.091227 211.463425,228.950792 211.336978,227.810356 C211.210531,226.669921 211.463425,225.656201 211.589871,224.515765 C211.716318,222.36161 210.957638,219.700594 210.451851,217.546438 C210.325405,216.659433 210.072511,215.772428 209.693171,214.885422 C209.440278,214.378562 209.313831,213.871702 209.060938,213.364842 C208.934491,212.984697 208.175811,212.224406 208.175811,211.844261 C208.049364,211.083971 208.428704,211.590831 208.555151,210.957256 C208.681598,210.323681 207.670024,208.29624 207.417131,207.662665 C207.037791,206.902375 206.532004,206.2688 206.026217,205.635224 C205.646877,205.255079 204.00307,204.494789 203.876624,203.987929 C203.62373,203.354354 204.508857,203.481069 204.129517,202.720779 C203.750177,201.707058 201.72703,201.073483 200.841903,200.820053 C198.945203,200.313193 197.680736,198.539182 197.174949,196.638457 C196.542716,194.357586 197.807183,191.18971 198.060076,188.908839 C198.565863,183.840238 198.186523,179.025066 196.163376,174.209895 C194.266676,169.774868 191.611295,165.846702 188.450128,162.171966 C186.932768,160.397955 185.162515,158.623945 183.518708,156.976649 C181.748454,155.075924 181.495561,153.808773 182.127794,151.401188 C182.760028,149.120317 182.380688,147.346306 181.369114,145.318866 C180.863327,144.305145 180.231094,143.291425 179.598861,142.531135 C178.84018,141.64413 177.955054,141.010554 177.196374,140.123549 C176.817034,139.489974 176.058353,138.096109 176.058353,137.462533 C175.931907,136.575528 176.690587,136.068668 177.32282,135.561808 C179.219521,134.041227 181.242667,132.520647 183.392261,131.380211 C185.415408,130.239776 187.312108,128.719196 188.955915,127.0719 C189.714595,126.31161 190.473275,125.424605 191.231955,124.537599 C191.864189,123.904024 192.875762,121.749868 193.760889,121.496438 C194.646016,121.116293 194.646016,121.749868 195.278249,122.636874 C195.910483,123.523879 196.669163,124.157454 197.427843,124.791029 C198.945203,125.80475 201.72703,126.691755 202.359263,128.719196 C203.117944,130.873351 202.232817,133.407652 202.612157,135.688523 C202.991497,137.842678 203.876624,139.870119 205.141091,141.64413 C207.796471,145.445581 211.589871,148.360027 215.256825,151.021043 C217.027079,152.288193 218.797332,153.555343 220.694032,154.569064 C222.970073,155.582784 225.246113,156.089644 227.6486,156.723219 C228.660174,156.976649 230.051087,156.976649 230.936214,157.48351 C232.074234,157.99037 231.568447,158.49723 231.694894,159.637665 C231.821341,160.778101 232.453574,161.918536 232.706467,163.058971 C233.085807,164.199407 233.338701,165.466557 233.844487,166.606992 C234.856061,168.887863 235.108954,171.422164 237.511441,172.435884 C239.408142,173.322889 241.684182,173.449604 243.454435,172.182454 C245.477582,170.661874 245.983369,168.000858 246.362709,165.719987 C246.489156,164.959697 246.362709,163.439116 247.374283,163.692546 C248.132963,163.819261 249.144536,166.226847 249.523876,166.860422 C250.788343,168.761148 252.558597,170.535159 255.08753,170.788589 C257.110677,170.915304 259.892504,169.648153 261.156971,168.127573 C262.294991,166.733707 262.674331,164.579552 262.042098,162.932256 C261.536311,161.665106 260.777631,160.52467 260.018951,159.384235 C259.639611,158.75066 259.386717,158.2438 259.007377,157.610225 C258.754484,157.230079 258.122251,156.469789 258.122251,155.962929 C258.880931,155.709499 260.271844,156.976649 260.904078,157.356794 C261.915651,157.99037 262.800778,158.623945 263.812351,159.25752 C265.582605,160.397955 267.226412,160.904816 269.249559,160.904816 C271.272706,161.031531 272.790066,160.01781 274.180979,158.623945 C275.571893,157.230079 275.571893,155.202639 275.192553,153.301913 C274.939659,152.414908 274.560319,151.527903 274.054533,150.767612 C273.801639,150.387467 272.663619,149.627177 272.790066,148.993602 C272.916512,148.360027 274.686766,147.979882 275.066106,147.726451 C276.07768,147.219591 277.089253,146.712731 278.100826,146.332586 C281.0091,143.925 284.549607,139.870119 282.273567,136.068668 Z M263.913899,147.175936 C263.550677,147.817355 263.06638,148.351872 262.339936,147.710452 C261.734565,147.282839 262.097787,146.534516 262.218861,146 C262.703158,146.427613 264.398196,146.32071 263.913899,147.175936 Z" id="path-2"></path>
        <filter x="-6.9%" y="-6.6%" width="113.8%" height="113.3%" filterUnits="objectBoundingBox" id="filter-2">
            <feMorphology radius="0.369147799" operator="dilate" in="SourceAlpha" result="shadowSpreadOuter1"></feMorphology>
            <feOffset dx="0" dy="0" in="shadowSpreadOuter1" result="shadowOffsetOuter1"></feOffset>
            <feGaussianBlur stdDeviation="6" in="shadowOffsetOuter1" result="shadowBlurOuter1"></feGaussianBlur>
            <feComposite in="shadowBlurOuter1" in2="SourceAlpha" operator="out" result="shadowBlurOuter1"></feComposite>
            <feColorMatrix values="0 0 0 0 0.0666666667   0 0 0 0 0.611764706   0 0 0 0 0.631372549  0 0 0 1 0" type="matrix" in="shadowBlurOuter1"></feColorMatrix>
        </filter>
        <mask id="mask2" x="0" y="0" width="100" height="100" >
            <rect x="0" y="0" width="100%" height="100%" fill="black" />
            <rect x="0" y="0" width="100%" height="0%" fill="white" id="maskHulk" />
        </mask>
    </defs>
    <g id="Hulk" stroke="none" stroke-width="1" fill="none" fill-rule="evenodd">
        <g id="Shape" fill-rule="nonzero">
            <use fill="black" fill-opacity="1" filter="url(#filter-2)" xlink:href="#path-2"></use>
            <use stroke="#10D5D9" stroke-width="0.738295598" fill="currentColor" xlink:href="#path-2"  mask="url(#mask2)"></use>
        </g>
    </g>
</svg>