<?xml version="1.0" encoding="UTF-8"?>
<svg width="300px" height="300px" viewBox="0 0 300 300" version="1.1" xmlns="http://www.w3.org/2000/svg" xmlns:xlink="http://www.w3.org/1999/xlink">
    <title>Ninja</title>
    <defs>
        <path d="M170.208506,234.024414 C168.676747,234.135988 167.077529,233.831586 167.000767,234.933984 C166.961223,235.443343 168.456927,236 170.063123,236 C171.663503,236 172.990563,235.251727 172.999867,234.731453 C173.014987,234.211179 171.737939,233.909202 170.208506,234.024414 M156.210523,234.02426 C154.675221,234.135705 153.074834,233.834075 153.000452,234.935208 C152.970234,235.44156 154.460209,236 156.060596,236 C157.664469,236 158.99057,235.248952 158.999868,234.730487 C159.014977,234.213233 157.735365,233.90918 156.210523,234.02426 M137.593138,211.958508 C133.325785,213.11472 129.636999,213.016964 128.646303,209 C127.893374,209.800022 128.24776,211.707939 127.369154,212.382115 C124.539726,212.232673 122.069213,211.727041 118.8503,211.958508 C119.461701,212.522568 119.461701,214.351832 118.8503,214.915892 C116.854189,214.786675 115.504578,214.014744 113.738309,213.648442 C114.4618,217.030557 109.727971,216.338403 107.777149,215.76423 C107.66053,220.436268 102.385498,219.989065 101.38914,223.790293 C98.769174,223.99704 96.9870533,223.365562 95,222.94645 C95.4687408,227.130834 95.7812346,231.469155 98.8325785,233.092795 C98.6899183,241.973937 104.646549,244.795363 108.631978,249.57864 C111.097962,249.410096 114.107414,248.576365 115.869154,250 C116.713793,248.999973 113.601309,248.32355 113.738309,246.621256 C115.417397,244.58075 118.767648,247.311162 120.553165,247.885335 C128.039431,239.817698 133.136704,229.373592 139.725116,220.408178 C139.12164,218.77892 139.937974,216.973252 141,214.915892 C138.733287,215.050728 139.010682,212.666393 137.593138,211.958508 M198.596795,151.244864 C198.794953,152.985291 200.716628,153.083992 201.634838,154.136803 C199.55072,156.337836 201.950508,158.617829 205.531182,157.846865 C206.16022,156.520981 205.943628,154.385749 205.96667,152.481916 C206.869903,151.696695 208.036963,151.156033 209.434439,150.831416 C210.353801,143.871898 210.822699,136.481386 212.466722,130.202905 C214.314663,130.175488 215.501308,129.511998 217.668376,129.794941 C219.125761,123.028438 215.61882,118.571539 210.299654,117 C205.646391,124.260008 200.879071,131.416927 196,138.456503 C197.752318,141.874848 198.730437,146.035644 198.596795,151.244864 M209.734544,88.6147878 C209.679907,89.8246841 209.973585,91.376264 209.30541,91.9868136 C207.225756,94.7090802 203.419319,95.7464542 201.17006,98.3118825 C201.705056,105.660882 194.106979,106.492126 188.747916,106.736346 C190.490636,108.398833 191.183854,111.08301 193.033573,112.640191 C193.278305,115.242589 190.153702,116.386389 190.895867,118.114972 C192.09107,117.610849 193.848588,117.650058 195.601552,117.69711 C194.80475,122.289114 194.85825,125.877353 194.746697,131.597474 C198.869579,124.061388 206.453996,119.407769 205.882575,108.422358 C214.204604,103.69144 218.314964,94.8099049 223.864122,87.3511183 C225.273323,87.5101973 225.751404,88.5811796 226.860098,89.0371312 C224.847603,92.9558509 222.224986,96.2662615 220.012153,99.992294 C219.963206,102.226121 221.827723,102.167867 222.580132,104.210127 C223.56589,106.87638 222.599483,110.545278 223.43954,113.479277 C223.895994,115.080149 225.737745,116.305729 226.435516,118.114972 C226.972788,119.498511 226.753098,121.843245 227.289232,123.595354 C228.683636,128.116781 231.282349,130.469357 230.292038,136.234289 C231.817345,136.97255 233.873094,137.203326 234.570865,138.763869 C234.970404,148.015094 228.388819,155.315922 227.289232,164.048461 C227.005799,166.329339 227.562422,168.548603 227.289232,170.792512 C226.51292,177.243052 219.62172,181.503455 217.010486,185.965508 C219.866452,195.739901 209.358909,195.4083 210.164818,204.510529 C205.760779,205.61512 199.046014,207.935208 194.746697,205.350735 C190.974409,208.382197 187.021132,211.234416 181.477666,212.512649 C182.969963,217.522516 177.137371,219.597264 181.047393,223.895756 C180.584109,225.125818 179.003027,225.260251 177.192009,225.159426 C177.168105,227.145672 178.997335,227.311473 179.75885,228.531452 C180.057082,234.950624 180.774204,240.40972 179.75885,247.071992 C177.937588,259.033161 170.651402,266.423611 157.923058,265.19355 C154.253216,264.840663 148.006287,261.241222 145.932325,255.502056 C145.219757,253.532614 145.292607,250.463062 144.643783,247.914438 C143.565823,243.654035 142.375173,240.465734 142.93635,235.695606 C143.316538,232.438968 146.67449,228.939231 146.791733,226.843198 C146.879382,225.125818 144.795175,223.977536 144.643783,221.7874 C144.449135,218.92958 146.117866,218.007594 146.791733,215.889156 C143.087742,215.941809 144.067809,221.244067 140.792952,220.523731 C135.043456,230.03486 128.82157,239.081075 122.378856,247.914438 C123.037925,250.219963 126.170496,250.083289 126.23424,252.969116 C124.648604,254.367218 122.730587,252.506443 121.096005,252.552374 C123.003776,255.320572 123.180211,259.462226 121.096005,262.244988 C120.675976,262.713262 118.625918,263.691262 118.100029,262.666211 C116.620254,265.707756 115.405699,269.008084 110.388123,268.565575 C106.620387,273.847669 103.311382,279.578992 99.2556596,284.579897 L99.2556596,285 L94.9756942,285 C98.3746242,278.7948 102.423517,273.224796 106.537292,267.720889 C103.428626,266.148023 101.766724,263.145688 101.824777,258.452859 C90.9199716,250.219963 77.4653994,244.497601 71.4256396,231.481134 C69.9686301,231.364625 67.9527208,231.804893 67.1422593,231.05767 C66.486605,225.66467 66.2179689,219.886294 65,215.044469 L65,209.98643 C65.3688055,209.510314 65.9493328,207.176782 66.7131245,206.196542 C72.1575592,199.20379 80.7174901,192.411566 88.1209197,185.119701 C95.8555913,177.510797 106.099051,173.659294 115.527496,170.37465 C117.674309,165.196742 118.518919,161.690283 119.381742,154.360328 C119.719814,151.506989 121.959966,149.22499 122.378856,146.348126 C123.360061,139.66793 119.133595,132.592277 121.096005,126.122693 C121.827924,123.70178 124.848942,122.807801 126.65996,121.064654 C123.355508,118.83979 119.807462,116.852423 117.240621,113.90274 C108.68069,112.451985 97.2989414,105.555576 103.540178,96.1979248 C97.20674,93.1619813 94.7389301,86.3182254 91.9763035,79.7623799 C88.6445325,78.4079683 85.9183311,76.4564504 86.4112101,71.3367966 C84.5216509,71.5093189 83.1010666,71.2214084 82.1278298,70.4965909 C82.3964659,65.2559475 87.077109,55.5263649 90.6934522,52.7917752 C93.5482802,50.6352471 97.5334289,50.8615425 101.399057,49.4208697 C108.109269,46.9226579 114.853629,41.2630319 121.525139,40.5673416 C123.28721,35.8453852 121.769872,35.1496949 120.57353,31.6297929 C119.534273,28.5647223 118.328825,23.8909377 118.147837,20.8113036 C119.767622,15.802557 126.288878,15.1158288 131.847141,16.8780204 C133.989401,17.3014841 136.273946,18.1416898 138.270504,19.6876684 C140.271616,21.2302862 136.864718,26.5000567 136.937568,34.2512349 C136.97627,38.204683 139.914193,41.7772379 139.940374,44.3617108 C139.958586,46.9977163 137.025216,48.7274199 137.796976,51.5281057 C139.368953,52.5139472 142.311429,52.1431363 144.219201,52.7917752 C145.152598,48.2344992 149.147991,46.68628 153.213958,45.2030368 C151.876469,39.3137546 152.623186,37.8585182 153.975473,33.4547198 C153.867336,33.3975858 156.640207,30.5856972 156.541176,30.5061577 C157.874112,29.8474364 158.948656,29.9426597 160.681132,29.9426597 C163.438067,29.9426597 164.536516,31.0674152 163.53596,35.7019901 C165.15233,40.1405171 166.210938,45.4394147 168.626387,49.4208697 C171.451619,47.143352 174.707125,45.293779 177.621144,43.0980413 C176.978011,38.6404697 177.821483,36.8200239 180.618258,35.0925609 C182.87207,35.1205677 182.891421,37.3499137 184.898224,37.6221403 C186.33702,34.2433929 191.926018,34.9514063 193.897534,32.1036689 C200.187717,29.2043989 205.297495,23.5022026 212.354885,22.3449592 C216.645095,21.6447877 220.402586,22.8737286 223.82542,25.4189919 C226.157774,27.1520564 230.397899,31.1816832 230.292038,31.2970714 C232.194118,34.4820114 233.936838,37.82491 235,41.8366124 L235,50.2599552 C230.804268,67.201864 219.573912,77.2249586 209.734544,88.6147878" id="path-3"></path>
        <filter x="-10.8%" y="-6.8%" width="121.6%" height="113.7%" filterUnits="objectBoundingBox" id="filter-2">
            <feMorphology radius="0.369147799" operator="dilate" in="SourceAlpha" result="shadowSpreadOuter1"></feMorphology>
            <feOffset dx="0" dy="0" in="shadowSpreadOuter1" result="shadowOffsetOuter1"></feOffset>
            <feGaussianBlur stdDeviation="6" in="shadowOffsetOuter1" result="shadowBlurOuter1"></feGaussianBlur>
            <feComposite in="shadowBlurOuter1" in2="SourceAlpha" operator="out" result="shadowBlurOuter1"></feComposite>
            <feColorMatrix values="0 0 0 0 0.0666666667   0 0 0 0 0.611764706   0 0 0 0 0.631372549  0 0 0 1 0" type="matrix" in="shadowBlurOuter1"></feColorMatrix>
        </filter>
        <mask id="mask3" x="0" y="0" width="100" height="100">
            <rect x="0" y="0" width="100%" height="100%" fill="black" />
            <rect x="0" y="0" width="100%" height="100%" fill="white" id="maskNinja" />
        </mask>
    </defs>
    <g id="Ninja" stroke="none" stroke-width="1" fill="none" fill-rule="evenodd">
        <g fill-rule="nonzero" transform="translate(150, 150.5) scale(1, -1) translate(-150, -150.5)">
            <use fill="black" fill-opacity="1" filter="url(#filter-2)" xlink:href="#path-3"></use>
            <use stroke="#10D5D9" stroke-width="0.738295598" fill="currentColor" xlink:href="#path-3" mask="url(#mask3)"></use>
        </g>
    </g>
</svg>